# xmcd
# 
# Track frame offsets:
#     150
#     20829
#     65514
#     106982
#     153466
# 
# Disc length: 2865
# 
# Revision: 4
# Processed by: cddbd v1.5.2PL0 Copyright (c) Steve Scherf et al.
# Submitted via: fre:ac v1.0.27
# 
DISCID=3d0b2f05
DTITLE=Parisien - Peirani - Schaerer - Wollny - Out Of Land
DYEAR=2017
DGENRE=Jazz
TTITLE0=Air Song [live]
TTITLE1=B&H [live]
TTITLE2=Kabinett V [live]
TTITLE3=Rezeusler [live]
TTITLE4=Ukuhamba [live]
EXTD=
EXTT0=
EXTT1=
EXTT2=
EXTT3=
EXTT4=
PLAYORDER=
